<svg xmlns="http://www.w3.org/2000/svg" viewBox="0 0 560 440" fill="none">
<defs><linearGradient id="g" x1="0" y1="0" x2="1" y2="1"><stop offset="0" stop-color="#1d4ed8"/><stop offset="1" stop-color="#16a34a"/></linearGradient>
<linearGradient id="soft" x1="0" y1="0" x2="1" y2="1"><stop offset="0" stop-color="#eff6ff"/><stop offset="1" stop-color="#ecfdf5"/></linearGradient>
<filter id="s" x="-20%" y="-20%" width="140%" height="160%"><feDropShadow dx="0" dy="18" stdDeviation="18" flood-color="#0b1d4a" flood-opacity=".16"/></filter></defs>
<circle cx="290" cy="220" r="190" fill="url(#soft)"/>
<circle cx="290" cy="220" r="150" stroke="url(#g)" stroke-opacity=".18" stroke-dasharray="3 9"/>
<g filter="url(#s)"><rect x="98" y="118" width="300" height="190" rx="22" fill="#fff"/></g>
<rect x="98" y="118" width="300" height="46" rx="22" fill="url(#g)"/><rect x="98" y="142" width="300" height="22" fill="url(#g)"/>
<circle cx="126" cy="141" r="6" fill="#fff" opacity=".9"/><rect x="142" y="136" width="90" height="10" rx="5" fill="#fff" opacity=".85"/>
<rect x="122" y="186" width="78" height="96" rx="14" fill="#eef2ff"/><circle cx="161" cy="220" r="18" fill="#c7d2fe"/><path d="M131 272c6-22 54-22 60 0" fill="#c7d2fe"/>
<rect x="218" y="192" width="140" height="11" rx="5.5" fill="#e2e8f0"/><rect x="218" y="214" width="110" height="11" rx="5.5" fill="#e2e8f0"/><rect x="218" y="236" width="150" height="11" rx="5.5" fill="#e2e8f0"/><rect x="218" y="258" width="80" height="11" rx="5.5" fill="#dcfce7"/>
<g filter="url(#s)"><circle cx="388" cy="268" r="58" fill="#fff"/></g>
<circle cx="388" cy="268" r="44" stroke="url(#g)" stroke-width="10"/><path d="M420 302l40 40" stroke="url(#g)" stroke-width="16" stroke-linecap="round"/>
<path d="M370 268l13 13 24-26" stroke="#16a34a" stroke-width="9" stroke-linecap="round" stroke-linejoin="round"/>
<g filter="url(#s)" transform="translate(412 86)"><path d="M48 0l44 16v36c0 30-20 52-44 62C24 104 4 82 4 52V16Z" fill="#fff"/></g>
<path d="M460 102l32 12v26c0 22-14 38-32 45-18-7-32-23-32-45v-26Z" fill="url(#g)"/><path d="M447 140l9 9 18-20" stroke="#fff" stroke-width="6" stroke-linecap="round" stroke-linejoin="round"/>
<g opacity=".9"><rect x="60" y="64" width="104" height="34" rx="17" fill="#fff" filter="url(#s)"/><circle cx="80" cy="81" r="7" fill="#22c55e"/><rect x="94" y="76" width="56" height="10" rx="5" fill="#e2e8f0"/></g>
<g opacity=".9"><rect x="70" y="330" width="124" height="34" rx="17" fill="#fff" filter="url(#s)"/><circle cx="90" cy="347" r="7" fill="#3b82f6"/><rect x="104" y="342" width="76" height="10" rx="5" fill="#e2e8f0"/></g>
</svg>